<?xml version="1.0" encoding="UTF-8" standalone="no"?>
<svg width="341px" height="341px" viewBox="0 0 341 341" version="1.1" xmlns="http://www.w3.org/2000/svg" xmlns:xlink="http://www.w3.org/1999/xlink" xmlns:sketch="http://www.bohemiancoding.com/sketch/ns">
    <!-- Generator: Sketch 3.2 (9961) - http://www.bohemiancoding.com/sketch -->
    <title>Artboard 1</title>
    <desc>Created with Sketch.</desc>
    <defs></defs>
    <g id="Page-1" stroke="none" stroke-width="1" fill="none" fill-rule="evenodd" sketch:type="MSPage">
        <g id="Artboard-1" sketch:type="MSArtboardGroup" fill="#54B148">
            <path d="M327.548243,183 C321.418474,264.102238 253.671298,328 171,328 C88.3287018,328 20.5815256,264.102238 14.4517574,183 L127.617698,183 C132.869169,202.027122 150.302814,216 171,216 C191.697186,216 209.130831,202.027122 214.382302,183 L327.548243,183 Z M327.548243,159 C321.418474,77.897762 253.671298,14 171,14 C88.3287018,14 20.5815256,77.897762 14.4517574,159 L127.617698,159 C132.869169,139.972878 150.302814,126 171,126 C191.697186,126 209.130831,139.972878 214.382302,159 L327.548243,159 Z" id="Oval-1" sketch:type="MSShapeGroup"></path>
        </g>
    </g>
</svg>