<?xml version="1.0" encoding="UTF-8" standalone="no"?>
<!-- Created with Inkscape (http://www.inkscape.org/) -->

<svg
   xmlns:dc="http://purl.org/dc/elements/1.1/"
   xmlns:cc="http://creativecommons.org/ns#"
   xmlns:rdf="http://www.w3.org/1999/02/22-rdf-syntax-ns#"
   xmlns:svg="http://www.w3.org/2000/svg"
   xmlns="http://www.w3.org/2000/svg"
   xmlns:sodipodi="http://sodipodi.sourceforge.net/DTD/sodipodi-0.dtd"
   xmlns:inkscape="http://www.inkscape.org/namespaces/inkscape"
   width="551.15002"
   height="341.76001"
   id="svg2"
   sodipodi:version="0.32"
   inkscape:version="0.48.5 r10040"
   version="1.0"
   sodipodi:docname="Crest_of_Hyrule.svg"
   inkscape:output_extension="org.inkscape.output.svg.inkscape">
  <defs
     id="defs4" />
  <sodipodi:namedview
     id="base"
     pagecolor="#ffffff"
     bordercolor="#666666"
     borderopacity="1.0"
     gridtolerance="10000"
     guidetolerance="10"
     objecttolerance="10"
     inkscape:pageopacity="0.0"
     inkscape:pageshadow="2"
     inkscape:zoom="0.98994949"
     inkscape:cx="146.52542"
     inkscape:cy="198.78916"
     inkscape:document-units="px"
     inkscape:current-layer="layer1"
     width="551.15px"
     height="341.76px"
     inkscape:window-width="1920"
     inkscape:window-height="1056"
     inkscape:window-x="0"
     inkscape:window-y="24"
     showgrid="false"
     inkscape:window-maximized="1" />
  <metadata
     id="metadata7">
    <rdf:RDF>
      <cc:Work
         rdf:about="">
        <dc:format>image/svg+xml</dc:format>
        <dc:type
           rdf:resource="http://purl.org/dc/dcmitype/StillImage" />
        <dc:title></dc:title>
      </cc:Work>
    </rdf:RDF>
  </metadata>
  <g
     inkscape:label="Layer 1"
     inkscape:groupmode="layer"
     id="layer1"
     transform="translate(-155.30316,-66.002876)">
    <path
       style="fill:#54b148;fill-opacity:1"
       d="m 401.25979,463.38706 -23.93304,-18.86717 -1.66831,-7.24063 -1.66831,-7.24066 3.66239,-5.30607 c 3.62987,-5.25893 3.75756,-5.34378 14.37131,-9.54941 5.8899,-2.33382 16.11745,-6.07743 22.7279,-8.31914 6.63812,-2.25106 12.13715,-4.57213 12.28289,-5.18436 0.14513,-0.60967 -0.84015,-8.64891 -2.18948,-17.86494 -1.34932,-9.21605 -2.36787,-16.88422 -2.26346,-17.04039 0.10445,-0.15616 2.50785,-2.01222 5.34094,-4.12457 l 5.15112,-3.84059 4.55079,2.12252 c 2.50295,1.16738 4.66368,2.46319 4.80161,2.87958 0.13793,0.41639 -0.63161,8.96681 -1.7101,19.00093 l -1.96088,18.24387 5.2132,7.26963 c 2.86727,3.9983 5.11184,7.4133 4.98794,7.58888 -0.12388,0.17559 -3.24751,4.95419 -6.94133,10.6191 -3.69383,5.66491 -6.9383,10.37346 -7.20995,10.46346 -0.27163,0.0899 -0.56364,-4.17484 -0.64895,-9.47738 -0.0853,-5.30254 -0.31673,-10.12895 -0.5143,-10.72535 -0.24495,-0.73944 -6.34223,2.09888 -19.16684,8.92153 -10.34418,5.50326 -18.65696,10.43431 -18.47282,10.95792 0.18419,0.52359 6.9089,10.83108 14.94393,22.90551 8.03501,12.07442 14.52758,22.11579 14.42793,22.31418 -0.0997,0.1984 -10.95106,-8.12951 -24.11422,-18.50644 z m 190.29696,-38.75153 c -0.1452,-1.65623 -0.84833,-13.96651 -1.56245,-27.35619 -0.71411,-13.38968 -1.70392,-24.50992 -2.19965,-24.71165 -1.34473,-0.54721 -40.4799,5.72338 -40.89654,6.55278 -0.19721,0.39262 2.37357,4.37211 5.71287,8.84333 3.33931,4.47121 5.9694,8.32726 5.84467,8.56899 -0.16944,0.32838 -21.79828,-7.2798 -24.72176,-8.69614 -0.26187,-0.1269 -0.54648,-4.21276 -0.63245,-9.07977 l -0.15628,-8.84907 -12.33385,-13.36633 c -6.78362,-7.35148 -12.53878,-13.985 -12.78927,-14.74115 -0.55988,-1.69008 4.10785,-9.32665 5.7247,-9.36579 9.57121,-0.23174 12.22402,0.0251 13.06959,1.26564 0.54294,0.79652 4.3112,7.69423 8.37388,15.32823 4.0627,7.63402 7.65028,14.01244 7.97243,14.17424 0.32215,0.16182 10.97209,-2.77538 23.66655,-6.52715 l 23.08082,-6.82137 6.17342,2.26029 c 6.6163,2.42245 7.97822,3.91915 10.81877,11.8894 1.74624,4.89977 1.67323,5.30725 -5.91679,33.03659 -4.22666,15.44158 -7.97279,28.64505 -8.32471,29.34103 -0.42854,0.84747 -0.7271,0.27087 -0.90399,-1.74591 z m -91.43574,11.5298 c -3.44535,-6.0379 -16.00292,-25.45342 -27.17765,-42.0199 l -7.07685,-10.49143 3.78372,-7.10867 3.7837,-7.10865 -2.2557,-5.31763 c -1.62248,-3.82482 -3.36833,-6.16394 -6.21899,-8.33234 -4.516,-3.43515 -16.39704,-8.59828 -21.65854,-9.41216 -1.94601,-0.30099 -3.88598,-0.83867 -4.31107,-1.19477 -0.57405,-0.4809 11.53539,-60.90741 12.65079,-63.12788 0.10669,-0.21244 5.15067,4.23582 11.20881,9.88501 6.05814,5.64919 16.62666,15.20201 23.48561,21.22847 6.85894,6.02647 12.60305,11.35637 12.76464,11.84421 0.16161,0.48784 -1.95155,3.76814 -4.69593,7.28955 -14.61953,18.75901 -14.45224,30.46772 0.52963,37.06535 3.32858,1.46582 4.89322,2.72592 4.82086,3.88253 -0.0589,0.94181 0.60875,10.95621 1.48371,22.25423 0.87497,11.298 1.64426,24.07951 1.70959,28.40332 0.0653,4.32382 0.48731,9.99111 0.93783,12.594 0.45052,2.60287 0.49883,4.8386 0.10735,4.96828 -0.39148,0.12968 -2.13364,-2.25599 -3.87147,-5.30152 z m -115.67995,-55.58881 -18.87739,-0.33125 14.94314,-24.26501 c 8.21874,-13.34574 15.3755,-25.0388 15.90394,-25.98459 0.82415,-1.47504 -0.3831,-2.36222 -8.4893,-6.23861 -5.19754,-2.48548 -10.61572,-5.46034 -12.0404,-6.61082 -1.42467,-1.15049 -3.05326,-1.71257 -3.6191,-1.24909 -0.56581,0.46349 -11.33028,14.27794 -23.92102,30.69881 l -22.89228,29.85608 -27.26123,-7.5753 c -14.99367,-4.16641 -27.02896,-7.95485 -26.74509,-8.41877 0.28387,-0.4639 15.86611,-11.74688 34.6272,-25.07329 18.76108,-13.32639 37.61626,-26.77263 41.90039,-29.88054 l 7.78934,-5.65075 -4.10317,-4.81401 c -2.25673,-2.64771 -5.33455,-7.55678 -6.83958,-10.90904 -1.50503,-3.35226 -3.09535,-6.18046 -3.53404,-6.28487 -0.43868,-0.10441 -23.3566,15.10907 -50.92871,33.80777 -27.57211,18.69869 -50.29016,33.90841 -50.48458,33.79942 -0.91101,-0.51079 -49.68653,-40.66997 -49.53526,-40.78472 0.095,-0.0719 30.18636,-9.69885 66.86993,-21.39307 36.68357,-11.69423 69.37951,-22.27335 72.65763,-23.50918 l 5.96026,-2.24695 -0.33714,-8.31585 c -0.18547,-4.57371 -0.47267,-9.21232 -0.63836,-10.308 -0.29213,-1.93206 -2.76784,-1.38199 -82.08832,18.23914 l -81.7871,20.2313 -7.90659,-22.13668 c -4.34862,-12.17516 -7.83987,-22.35627 -7.7583,-22.62466 0.0816,-0.26841 42.55548,-5.37858 94.38648,-11.35598 l 94.23817,-10.86795 4.01084,-8.59882 c 2.20597,-4.72935 5.5977,-10.76854 7.53718,-13.42042 l 3.52636,-4.82162 -3.52166,7.98037 c -5.15936,11.69157 -7.73759,20.98919 -8.37802,30.2128 -0.69274,9.97698 -0.29225,14.22473 2.59875,27.56365 1.90597,8.794 2.91725,11.59614 6.62189,18.3485 9.91842,18.07807 20.93141,30.92289 31.44251,36.67245 10.31446,5.64199 34.15498,12.64126 38.338,11.25556 0.69043,-0.22873 1.3466,-0.14033 1.45815,0.19637 0.39049,1.17877 -3.52429,16.2897 -4.28547,16.54187 -0.4228,0.14005 -2.69769,-0.0405 -5.05531,-0.40135 l -4.28662,-0.65597 -4.33623,24.58131 c -2.38495,13.51972 -4.77415,24.69194 -5.30939,24.82716 -0.53525,0.13517 -9.46798,0.0968 -19.85052,-0.0854 z m 143.92195,-64.07267 -18.21612,-17.09899 -3.23389,3.68112 -3.23387,3.68111 -4.88483,-3.96478 c -5.82452,-4.72754 -8.77034,-7.46719 -8.41142,-7.82279 13.02089,-12.90017 17.47702,-18.75267 23.55818,-30.94037 4.99395,-10.0087 6.62656,-18.9534 6.04369,-33.11199 -0.80675,-19.59682 -4.47005,-32.81658 -13.39417,-48.33538 -6.87699,-11.95892 -20.11898,-23.75502 -34.86851,-31.06126 -6.44402,-3.19208 -7.03088,-3.66859 -3.74184,-3.03826 2.14547,0.41117 9.04649,3.19682 15.3356,6.19035 l 11.43475,5.44276 80.73648,-46.7741 c 44.40506,-25.725765 81.51798,-47.033006 82.47316,-47.349424 1.65198,-0.547257 2.06954,0.534371 8.56325,22.18249 3.75461,12.516814 6.79403,22.822224 6.75426,22.900934 -0.0398,0.0787 -33.80016,14.24072 -75.02307,31.47114 -41.22292,17.23041 -76.23502,31.98958 -77.80468,32.79814 -2.76441,1.42399 -2.79167,1.55584 -0.86905,4.20405 1.09167,1.50368 3.68976,5.19978 5.77351,8.21354 2.08378,3.01377 3.97621,5.57377 4.20539,5.68891 0.22919,0.11515 32.73276,-10.91481 72.23013,-24.51096 39.49738,-13.59617 71.96848,-24.64452 72.15802,-24.55191 0.54589,0.26674 -15.04681,61.89292 -15.80756,62.47541 -0.37596,0.28785 -27.74327,1.69083 -60.81622,3.1177 -37.02502,1.59739 -60.23826,3.03797 -60.40745,3.7488 -0.15118,0.63496 0.28665,3.71635 0.97289,6.84752 0.68622,3.13117 1.14324,8.43074 1.0156,11.77684 -0.12766,3.34609 0.24133,6.28693 0.81996,6.5352 0.57864,0.24828 23.6427,-0.0428 51.25347,-0.64681 27.61077,-0.60401 50.64021,-0.8944 51.17652,-0.64531 1.16965,0.54327 -31.94556,43.77828 -34.02428,44.42192 -0.7966,0.24662 -17.8229,-4.21271 -37.83624,-9.90969 l -36.38788,-10.35814 -1.11918,3.36339 c -0.61554,1.84988 -3.26152,7.54381 -5.87993,12.6532 -2.61841,5.10939 -4.57538,9.3553 -4.34882,9.43538 5.56544,1.96705 55.7812,22.45701 55.6243,22.69685 -0.50093,0.7658 -29.75331,23.07931 -30.64245,23.37386 -0.52887,0.17519 -9.15882,-7.37601 -19.1777,-16.78045 z m -145.49216,-30.711 c -0.45363,-1.36934 26.54285,-127.94245 27.41161,-128.5195 0.72046,-0.47852 98.14844,85.10551 98.83409,86.81921 0.15354,0.38368 -28.12777,10.10798 -62.84729,21.60952 -34.8823,11.55545 -63.24811,20.5445 -63.39841,20.09077 z m 68.99532,-52.69856 c 3.35428,-16.86691 6.05195,-31.27096 5.99479,-32.00899 -0.0839,-1.08343 -5.9675,0.60057 -30.55014,8.74406 -16.74541,5.54725 -30.35124,10.3726 -30.23518,10.72298 0.35328,1.06645 47.51967,43.59738 48.12623,43.39644 0.31107,-0.10303 3.31,-13.98756 6.6643,-30.85449 z"
       id="path2266"
       inkscape:connector-curvature="0" />
  </g>
</svg>
