<?xml version="1.0" encoding="UTF-8" standalone="no"?>
<svg width="300px" height="300px" viewBox="0 0 300 300" version="1.1" xmlns="http://www.w3.org/2000/svg" xmlns:xlink="http://www.w3.org/1999/xlink" xmlns:sketch="http://www.bohemiancoding.com/sketch/ns">
    <!-- Generator: Sketch 3.2 (9964) - http://www.bohemiancoding.com/sketch -->
    <title>Artboard 1</title>
    <desc>Created with Sketch.</desc>
    <defs>
        <path id="path-1" d="M0,0 L288,0 L288,288 L0,288"></path>
    </defs>
    <g id="Page-1" stroke="none" stroke-width="1" fill="none" fill-rule="evenodd" sketch:type="MSPage">
        <g id="Artboard-1" sketch:type="MSArtboardGroup">
            <g id="icon_stephen" sketch:type="MSLayerGroup" transform="translate(6.000000, 7.000000)">
                <mask id="mask-2" sketch:name="Clip 2" fill="white">
                    <use xlink:href="#path-1"></use>
                </mask>
                <g id="Clip-2"></g>
                <path d="M197.474588,118.767732 C197.474588,119.239044 197.4932,119.709199 197.521119,120.175879 C191.98748,122.663296 188.123122,128.193978 188.123122,134.634861 C188.123122,143.397564 195.262063,150.500831 204.060979,150.500831 C204.635631,150.500831 205.200977,150.466091 205.766322,150.404716 L205.766322,158.157629 L151.117421,158.157629 L151.117421,136.498108 C153.644026,138.174914 156.673162,139.153437 159.936112,139.153437 C168.738519,139.153437 175.875133,132.05017 175.875133,123.287467 C175.875133,116.851216 172.013102,111.315902 166.47481,108.829643 C166.502728,108.362963 166.521341,107.892809 166.521341,107.422654 C166.521341,95.0376784 156.438183,85 143.999418,85 C131.559491,85 121.476333,95.0376784 121.476333,107.422654 C121.476333,107.892809 121.492619,108.362963 121.522863,108.829643 C115.984571,111.313586 112.124867,116.846584 112.124867,123.287467 C112.124867,132.05017 119.259155,139.153437 128.063888,139.153437 C131.322185,139.153437 134.353647,138.174914 136.880253,136.498108 L136.880253,158.157629 L82.2360045,158.157629 L82.2360045,150.404716 C82.7943704,150.466091 83.3620424,150.500831 83.936694,150.500831 C92.7379369,150.500831 99.8733881,143.397564 99.8733881,134.634861 C99.8733881,128.193978 96.0125204,122.663296 90.4742284,120.175879 C90.5044732,119.709199 90.5254119,119.243676 90.5254119,118.767732 C90.5254119,106.383914 80.4399274,96.3473939 68,96.3473939 L68,193 L220,193 L220,96.3473939 C207.557746,96.3473939 197.474588,106.383914 197.474588,118.767732" id="Fill-1" fill-opacity="0.1" fill="#000000" sketch:type="MSShapeGroup" mask="url(#mask-2)"></path>
                <path d="M144.000582,26 C78.9355142,26 26,78.936036 26,143.998255 C26,209.06629 78.9355142,262 144.000582,262 C209.066812,262 262,209.06629 262,143.998255 C262,78.936036 209.066812,26 144.000582,26 L144.000582,26 Z M143.99942,288 C64.5973822,288 0,223.402357 0,143.997678 C0,64.5976426 64.5973822,0 143.99942,0 C223.402618,0 288,64.5976426 288,143.997678 C288,223.402357 223.402618,288 143.99942,288 L143.99942,288 Z" id="Fill-3" fill-opacity="0.1" fill="#000000" sketch:type="MSShapeGroup" mask="url(#mask-2)"></path>
            </g>
        </g>
    </g>
</svg>